<svg xmlns="http://www.w3.org/2000/svg" width="774" height="774" viewBox="0 0 774 774" version="1.1"><path d="M 312 232.084 L 312 328.168 306.762 320.334 C 292.922 299.634, 269.298 282.551, 243 274.226 C 228.662 269.686, 220.330 268.540, 202 268.586 C 183.694 268.631, 172.770 270.244, 157.500 275.159 C 112.466 289.652, 74.675 331.396, 59.087 383.869 C 52.367 406.488, 49.441 439.332, 51.902 464.500 C 58.040 527.257, 90.623 577.699, 141.539 603.268 C 174.215 619.677, 213.998 624.008, 249.557 615.027 C 280.683 607.166, 305.883 590.529, 323.070 566.493 C 329.119 558.033, 329.697 558.208, 329.900 568.568 C 330.299 588.822, 345.517 607.514, 367.422 614.655 C 379.198 618.494, 400.505 619.051, 421.748 616.075 C 430.134 614.900, 437.671 613.680, 438.498 613.363 C 439.802 612.862, 440 607.031, 440 569.023 L 440 525.260 435.561 524.760 C 424.899 523.558, 419.676 517.634, 418.017 504.861 C 417.442 500.426, 417.049 425.668, 417.031 316.750 L 417 136 364.500 136 L 312 136 312 232.084 M 496 335.776 C 496 467.469, 496.353 538.440, 497.036 544.026 C 499.294 562.497, 505.644 578.419, 515.488 590.296 C 539.470 619.232, 584.130 627.008, 642.862 612.473 C 657.139 608.940, 680.199 601.413, 682.824 599.430 C 683.178 599.162, 669.840 520.760, 669.327 520.089 C 669.154 519.864, 665.522 521.303, 661.256 523.287 C 647.438 529.715, 628.353 531.681, 618.744 527.667 C 612.805 525.185, 607.294 519.402, 604.984 513.227 C 603.814 510.100, 602.480 503.152, 601.975 497.555 C 601.475 492.015, 601.052 408.574, 601.034 311.750 L 601 136 548.500 136 L 496 136 496 335.776 M 222.500 357.959 C 203.590 362.002, 182.310 378.128, 172.299 396 C 167.262 404.993, 162.524 418.747, 160.928 429.009 C 159.413 438.759, 160.294 461.551, 162.494 469.500 C 165.187 479.233, 172.230 492.953, 178.696 501.062 C 199.132 526.692, 235.662 537.045, 266.407 525.920 C 283.810 519.623, 300.845 505.273, 310.338 488.912 L 313 484.324 313 449.642 L 313 414.960 308.562 406.124 C 300.695 390.460, 288.360 377.452, 271.989 367.555 C 259.740 360.150, 251.623 357.722, 238 357.386 C 231.675 357.231, 224.700 357.488, 222.500 357.959" stroke="none" fill="#f46424" fill-rule="evenodd"/></svg>