<svg xmlns="http://www.w3.org/2000/svg" width="3586" height="484" viewBox="0 0 3586 484" version="1.1"><path d="M 3127.755 95.558 L 3127.500 191.116 3123.350 184.808 C 3111.762 167.194, 3092.131 151.353, 3070.678 142.305 C 3035.504 127.471, 2991.323 129.074, 2956.500 146.449 C 2940.543 154.411, 2929.543 162.585, 2916.348 176.284 C 2882.736 211.181, 2865.007 261.812, 2867.391 316.097 C 2869.671 368.006, 2887.098 408.832, 2920.761 441.128 C 2968.273 486.710, 3042.782 496.976, 3099.700 465.783 C 3115.718 457.004, 3128.255 445.722, 3140.240 429.299 C 3142.729 425.889, 3145.043 423.376, 3145.383 423.716 C 3145.722 424.056, 3146.005 427.071, 3146.012 430.417 C 3146.056 453.223, 3162.262 472.915, 3186.500 479.615 C 3199.269 483.145, 3231.499 482.303, 3252.009 477.905 L 3257.021 476.830 3256.760 433.177 L 3256.500 389.524 3251.795 388.852 C 3244.645 387.829, 3239.381 384.405, 3236.750 379.066 L 3234.500 374.500 3234.240 187.250 L 3233.979 0 3180.995 -0 L 3128.010 -0 3127.755 95.558 M 0 60.500 L 0 108 70.500 108 L 141 108 141 292.500 L 141 477 195.500 477 L 250 477 250 292.507 L 250 108.014 320.250 107.757 L 390.500 107.500 390.760 60.250 L 391.020 13 195.510 13 L 0 13 0 60.500 M 602.193 129.072 C 576.521 132.405, 548.268 148.781, 529.029 171.479 C 521.985 179.790, 511.658 194.594, 510.286 198.350 C 509.854 199.532, 509.275 186.325, 509 169 L 508.500 137.500 460.500 137.500 L 412.500 137.500 412.247 307.250 L 411.994 477 464.997 477 L 518 477 518.010 373.750 L 518.019 270.500 523.036 263.821 C 532.993 250.566, 547.316 241.096, 568.627 233.678 C 584.812 228.044, 608.145 224, 624.461 224 L 631 224 631 176.617 L 631 129.233 628.750 128.630 C 625.682 127.808, 609.909 128.071, 602.193 129.072 M 818.500 132.586 C 786.336 135.789, 769.018 140.163, 747.500 150.519 C 699.144 173.792, 666.009 216.937, 654.249 271.942 C 651.734 283.707, 651.564 286.110, 651.567 310 C 651.569 332.762, 651.814 336.627, 653.841 346 C 665.496 399.867, 697.206 440.839, 745.500 464.432 C 764.035 473.487, 780.820 478.522, 802.195 481.440 C 883.675 492.566, 959.070 461.355, 994.469 401.846 C 997.047 397.513, 998.984 393.453, 998.775 392.826 C 998.421 391.764, 914.311 367.073, 911 367.058 C 910.175 367.055, 908.668 368.856, 907.650 371.062 C 901.070 385.330, 882.794 398.289, 861 404.142 C 853.940 406.038, 850.043 406.417, 838 406.381 C 825.145 406.343, 822.483 406.029, 814.537 403.612 C 788.106 395.572, 771.120 378.762, 765.002 354.590 C 763.901 350.240, 763 345.177, 763 343.340 L 763 340 889.359 340 L 1015.718 340 1016.859 329.964 C 1020.180 300.755, 1017.124 271.789, 1007.929 245.320 C 994.617 206.999, 968.415 175.820, 931.902 154.849 C 915.470 145.411, 892.526 137.942, 869.430 134.513 C 859.043 132.970, 826.864 131.753, 818.500 132.586 M 1272 133.040 C 1239.506 135.952, 1211.625 145.826, 1190.102 162.044 C 1181.733 168.351, 1169.479 180.699, 1163.986 188.363 L 1160.500 193.226 1160.234 165.113 L 1159.969 137 1112.484 137 L 1065 137 1065 307 L 1065 477 1117.500 477 L 1170 477 1170 380.480 L 1170 283.960 1172.465 277.895 C 1180.958 256.992, 1203.153 236.070, 1225.106 228.274 C 1234.908 224.793, 1249.091 224.012, 1257.600 226.486 C 1273.140 231.004, 1283.868 242.825, 1288.467 260.500 C 1291.501 272.159, 1291.983 288.887, 1291.991 382.750 L 1292 477 1344.500 477 L 1397 477 1396.999 363.250 C 1396.999 293.910, 1396.601 245.205, 1395.980 238.500 C 1391.250 187.420, 1374.197 156.840, 1341.911 141.543 C 1324.815 133.443, 1300.505 130.486, 1272 133.040 M 2256.500 132.618 C 2221.278 135.478, 2192.035 145.018, 2166.835 161.869 C 2124.379 190.259, 2098.307 232.919, 2091.398 285.305 C 2089.444 300.124, 2089.975 328.890, 2092.450 342.262 C 2099.054 377.940, 2114.743 408.082, 2139.420 432.500 C 2160.531 453.389, 2188.970 469.386, 2218.555 477.014 C 2248.967 484.856, 2286.535 485.784, 2317.756 479.466 C 2356.834 471.558, 2395.128 450.331, 2417.816 424 C 2424.492 416.252, 2433.158 403.652, 2436.875 396.289 L 2439.001 392.077 2435.251 391.065 C 2433.188 390.508, 2413.508 384.866, 2391.518 378.526 C 2369.527 372.187, 2351.024 367, 2350.400 367 C 2349.775 367, 2347.517 369.988, 2345.382 373.640 C 2339.838 383.123, 2330.740 391.065, 2318.528 397.084 C 2303.608 404.438, 2295.529 406.292, 2278 406.387 C 2261.110 406.478, 2253.252 404.736, 2239 397.740 C 2226.866 391.784, 2214.936 379.901, 2209.143 368 C 2205.322 360.148, 2202 348.261, 2202 342.435 L 2202 340 2328.386 340 L 2454.773 340 2455.387 335.750 C 2459.723 305.733, 2457.305 275.760, 2448.388 249 C 2427.411 186.047, 2377.118 144.745, 2309 134.532 C 2298.724 132.991, 2266.414 131.813, 2256.500 132.618 M 2630.500 132.614 C 2593.033 135.626, 2560.961 143.926, 2531.852 158.142 C 2517.592 165.106, 2501.580 174.252, 2500.451 176.079 C 2499.893 176.983, 2529.117 240.448, 2530.965 242.343 C 2531.417 242.807, 2537.176 239.997, 2543.763 236.099 C 2567.621 221.982, 2590.080 212.560, 2610 208.312 C 2621.959 205.762, 2655.340 205.766, 2665.472 208.318 C 2686.501 213.615, 2699.612 225.630, 2704.552 244.131 C 2706.254 250.507, 2707.724 275, 2706.404 274.999 C 2705.907 274.999, 2703.185 274.119, 2700.356 273.044 C 2692.611 270.100, 2676.890 266.333, 2664 264.333 C 2646.822 261.667, 2610.781 261.929, 2594.743 264.837 C 2562.072 270.760, 2538.673 281.388, 2516.721 300.276 C 2503.287 311.835, 2490.517 332.160, 2485.795 349.500 C 2482.872 360.236, 2482.582 389.608, 2485.293 400.363 C 2500.797 461.855, 2567.213 496.336, 2637.717 479.495 C 2666.436 472.635, 2687.678 460.525, 2709.587 438.524 L 2722.674 425.381 2723.944 432.941 C 2728.420 459.577, 2743.805 475.845, 2769.054 480.640 C 2783.255 483.336, 2819.350 481.515, 2832.137 477.457 C 2833.917 476.892, 2834 474.923, 2834 433.401 C 2834 399.505, 2833.725 389.851, 2832.750 389.547 C 2832.063 389.332, 2829.863 388.885, 2827.862 388.554 C 2822.357 387.642, 2817.786 384.068, 2815 378.499 L 2812.500 373.500 2811.926 312.500 C 2811.315 247.538, 2811.139 245.033, 2805.848 226 C 2795.673 189.403, 2769.431 161.216, 2731.410 146.046 C 2718.715 140.980, 2701.006 136.521, 2685.500 134.484 C 2673.782 132.945, 2640.471 131.813, 2630.500 132.614 M 3427.614 133.073 C 3364.525 139.102, 3319.992 172.766, 3309.383 222.448 C 3304.682 244.464, 3307.645 271.501, 3316.390 286.394 C 3328.120 306.372, 3346.310 317.970, 3395 336.519 C 3411.677 342.872, 3418.335 345.119, 3445.496 353.562 C 3460.475 358.217, 3471.695 363.112, 3477.661 367.592 C 3482.023 370.868, 3484.449 377.562, 3483.667 384.165 C 3482.481 394.175, 3476.035 399.916, 3461.735 403.698 C 3452.638 406.103, 3430.597 405.851, 3417.361 403.191 C 3392.445 398.182, 3365.100 386.293, 3340.094 369.598 C 3332.170 364.308, 3325.579 360.097, 3325.447 360.240 C 3324.072 361.729, 3288.989 425.453, 3289.207 426.065 C 3289.701 427.454, 3301.437 437.274, 3309.690 443.203 C 3370.625 486.977, 3472.277 496.870, 3532 464.838 C 3567.067 446.030, 3586.021 414.167, 3585.992 374.074 C 3585.969 341.953, 3575.239 321.268, 3550.046 304.780 C 3534.341 294.501, 3508.084 284.209, 3459.538 269.303 C 3426.867 259.272, 3418.593 256.099, 3413.206 251.538 C 3405.258 244.807, 3403.015 231.770, 3408.264 222.813 C 3413.979 213.061, 3425.942 208.575, 3446 208.664 C 3465.993 208.752, 3481.197 212.807, 3504 224.134 C 3511.425 227.822, 3523.024 234.467, 3529.775 238.901 L 3542.050 246.961 3545.392 241.731 C 3571.196 201.344, 3582.990 182.449, 3582.941 181.569 C 3582.774 178.544, 3556.582 159.829, 3542.857 152.928 C 3525.704 144.304, 3504.783 137.880, 3483 134.550 C 3470.099 132.577, 3440.939 131.800, 3427.614 133.073 M 814.077 210.054 C 792.506 215.702, 775.065 230.482, 766.823 250.098 C 763.942 256.957, 761.052 268.230, 761.017 272.750 L 761 275 834.475 275 L 907.950 275 907.382 271.750 C 902.807 245.568, 888.993 226.054, 867.500 215.412 C 862.550 212.961, 855.350 210.299, 851.500 209.495 C 841.357 207.379, 823.262 207.649, 814.077 210.054 M 2255.026 209.502 C 2246.750 211.373, 2234.194 217.433, 2226.448 223.293 C 2213.168 233.340, 2202.995 251.573, 2200.525 269.750 L 2199.812 275 2273.451 275 L 2347.091 275 2346.447 271.250 C 2343.219 252.455, 2336.308 239.190, 2323.367 226.951 C 2315.846 219.837, 2307.537 214.850, 2297.490 211.418 C 2290.584 209.060, 2287.601 208.645, 2275.500 208.364 C 2265.758 208.137, 2259.531 208.484, 2255.026 209.502 M 3035.362 222.931 C 3008.305 230.216, 2986.405 253.972, 2978.966 284.107 C 2976.340 294.747, 2975.353 313.957, 2976.917 324 C 2983.323 365.125, 3016.026 393.976, 3056.500 394.208 C 3074.968 394.314, 3088.317 389.759, 3103.759 378.082 C 3113.279 370.884, 3119.826 363.810, 3125.210 354.906 L 3129 348.637 3129 313.435 L 3129 278.232 3125.024 270.366 C 3114.460 249.467, 3094.795 232.090, 3072.806 224.226 C 3062.855 220.666, 3045.945 220.082, 3035.362 222.931 M 2626.775 323.913 C 2612.209 327.097, 2598.067 334.825, 2590.628 343.666 C 2589.166 345.403, 2586.755 349.452, 2585.270 352.662 C 2583.071 357.418, 2582.580 359.890, 2582.622 366 C 2582.692 376.181, 2585.555 383.326, 2592.628 390.965 C 2598.834 397.668, 2603.772 400.849, 2613.038 404.111 C 2622.187 407.332, 2643.716 407.389, 2655.500 404.224 C 2679.631 397.741, 2695.736 386.614, 2704.312 370.500 C 2706.190 366.971, 2706.484 364.488, 2706.816 349.408 L 2707.192 332.315 2696.346 329.192 C 2680.247 324.555, 2669.303 322.905, 2651.500 322.431 C 2638.333 322.081, 2633.955 322.343, 2626.775 323.913" stroke="none" fill="#f46424" fill-rule="evenodd"/><path d="M 1706 96.084 L 1706 192.168 1700.762 184.334 C 1686.922 163.634, 1663.298 146.551, 1637 138.226 C 1622.662 133.686, 1614.330 132.540, 1596 132.586 C 1565.652 132.661, 1542.424 139.425, 1519.283 154.927 C 1466.745 190.122, 1438.676 257.277, 1446.048 330.144 C 1452.257 391.529, 1485.184 441.981, 1535.539 467.268 C 1568.215 483.677, 1607.998 488.008, 1643.557 479.027 C 1674.683 471.166, 1699.883 454.529, 1717.070 430.493 C 1723.119 422.033, 1723.697 422.208, 1723.900 432.568 C 1724.299 452.822, 1739.517 471.514, 1761.422 478.655 C 1773.198 482.494, 1794.505 483.051, 1815.748 480.075 C 1824.134 478.900, 1831.671 477.680, 1832.498 477.363 C 1833.802 476.862, 1834 471.031, 1834 433.023 L 1834 389.260 1829.561 388.760 C 1818.899 387.558, 1813.676 381.634, 1812.017 368.861 C 1811.442 364.426, 1811.049 289.668, 1811.031 180.750 L 1811 0 1758.500 0 L 1706 0 1706 96.084 M 1890 199.776 C 1890 331.469, 1890.353 402.440, 1891.036 408.026 C 1893.294 426.497, 1899.644 442.419, 1909.488 454.296 C 1933.470 483.232, 1978.130 491.008, 2036.862 476.473 C 2051.139 472.940, 2074.199 465.413, 2076.824 463.430 C 2077.178 463.162, 2063.840 384.760, 2063.327 384.089 C 2063.154 383.864, 2059.522 385.303, 2055.256 387.287 C 2041.438 393.715, 2022.353 395.681, 2012.744 391.667 C 2006.805 389.185, 2001.294 383.402, 1998.984 377.227 C 1997.814 374.100, 1996.480 367.152, 1995.975 361.555 C 1995.475 356.015, 1995.052 272.574, 1995.034 175.750 L 1995 0 1942.500 0 L 1890 0 1890 199.776 M 1616.500 221.959 C 1597.590 226.002, 1576.310 242.128, 1566.299 260 C 1561.262 268.993, 1556.524 282.747, 1554.928 293.009 C 1553.413 302.759, 1554.294 325.551, 1556.494 333.500 C 1559.187 343.233, 1566.230 356.953, 1572.696 365.062 C 1593.132 390.692, 1629.662 401.045, 1660.407 389.920 C 1677.810 383.623, 1694.845 369.273, 1704.338 352.912 L 1707 348.324 1707 313.642 L 1707 278.960 1702.562 270.124 C 1694.695 254.460, 1682.360 241.452, 1665.989 231.555 C 1653.740 224.150, 1645.623 221.722, 1632 221.386 C 1625.675 221.231, 1618.700 221.488, 1616.500 221.959" stroke="none" fill="#fcfcfc" fill-rule="evenodd"/></svg>