<svg xmlns="http://www.w3.org/2000/svg" width="3586" height="484"><path fill="#f46424" fill-rule="evenodd" d="m3127.755 95.558-.255 95.558-4.15-6.308c-11.588-17.614-31.219-33.455-52.672-42.503-35.174-14.834-79.355-13.231-114.178 4.144-15.957 7.962-26.957 16.136-40.152 29.835-33.612 34.897-51.341 85.528-48.957 139.813 2.28 51.909 19.707 92.735 53.37 125.031 47.512 45.582 122.021 55.848 178.939 24.655 16.018-8.779 28.555-20.061 40.54-36.484 2.489-3.41 4.803-5.923 5.143-5.583.339.34.622 3.355.629 6.701.044 22.806 16.25 42.498 40.488 49.198 12.769 3.53 44.999 2.688 65.509-1.71l5.012-1.075-.261-43.653-.26-43.653-4.705-.672c-7.15-1.023-12.414-4.447-15.045-9.786l-2.25-4.566-.26-187.25L3233.979 0H3128.01l-.255 95.558M0 60.5V108h141v369h109V108.014l70.25-.257 70.25-.257.26-47.25.26-47.25H0v47.5m602.193 68.572c-25.672 3.333-53.925 19.709-73.164 42.407-7.044 8.311-17.371 23.115-18.743 26.871-.432 1.182-1.011-12.025-1.286-29.35l-.5-31.5h-96l-.253 169.75-.253 169.75H518l.01-103.25.009-103.25 5.017-6.679c9.957-13.255 24.28-22.725 45.591-30.143 16.185-5.634 39.518-9.678 55.834-9.678H631v-94.767l-2.25-.603c-3.068-.822-18.841-.559-26.557.442m216.307 3.514c-32.164 3.203-49.482 7.577-71 17.933-48.356 23.273-81.491 66.418-93.251 121.423-2.515 11.765-2.685 14.168-2.682 38.058.002 22.762.247 26.627 2.274 36 11.655 53.867 43.365 94.839 91.659 118.432 18.535 9.055 35.32 14.09 56.695 17.008 81.48 11.126 156.875-20.085 192.274-79.594 2.578-4.333 4.515-8.393 4.306-9.02-.354-1.062-84.464-25.753-87.775-25.768-.825-.003-2.332 1.798-3.35 4.004-6.58 14.268-24.856 27.227-46.65 33.08-7.06 1.896-10.957 2.275-23 2.239-12.855-.038-15.517-.352-23.463-2.769-26.431-8.04-43.417-24.85-49.535-49.022-1.101-4.35-2.002-9.413-2.002-11.25V340h252.718l1.141-10.036c3.321-29.209.265-58.175-8.93-84.644-13.312-38.321-39.514-69.5-76.027-90.471-16.432-9.438-39.376-16.907-62.472-20.336-10.387-1.543-42.566-2.76-50.93-1.927m453.5.454c-32.494 2.912-60.375 12.786-81.898 29.004-8.369 6.307-20.623 18.655-26.116 26.319l-3.486 4.863-.266-28.113-.265-28.113H1065v340h105V283.96l2.465-6.065c8.493-20.903 30.688-41.825 52.641-49.621 9.802-3.481 23.985-4.262 32.494-1.788 15.54 4.518 26.268 16.339 30.867 34.014 3.034 11.659 3.516 28.387 3.524 122.25L1292 477h105l-.001-113.75c0-69.34-.398-118.045-1.019-124.75-4.73-51.08-21.783-81.66-54.069-96.957-17.096-8.1-41.406-11.057-69.911-8.503m984.5-.422c-35.222 2.86-64.465 12.4-89.665 29.251-42.456 28.39-68.528 71.05-75.437 123.436-1.954 14.819-1.423 43.585 1.052 56.957 6.604 35.678 22.293 65.82 46.97 90.238 21.111 20.889 49.55 36.886 79.135 44.514 30.412 7.842 67.98 8.77 99.201 2.452 39.078-7.908 77.372-29.135 100.06-55.466 6.676-7.748 15.342-20.348 19.059-27.711l2.126-4.212-3.75-1.012c-2.063-.557-21.743-6.199-43.733-12.539-21.991-6.339-40.494-11.526-41.118-11.526-.625 0-2.883 2.988-5.018 6.64-5.544 9.483-14.642 17.425-26.854 23.444-14.92 7.354-22.999 9.208-40.528 9.303-16.89.091-24.748-1.651-39-8.647-12.134-5.956-24.064-17.839-29.857-29.74-3.821-7.852-7.143-19.739-7.143-25.565V340h252.773l.614-4.25c4.336-30.017 1.918-59.99-6.999-86.75-20.977-62.953-71.27-104.255-139.388-114.468-10.276-1.541-42.586-2.719-52.5-1.914m374-.004c-37.467 3.012-69.539 11.312-98.648 25.528-14.26 6.964-30.272 16.11-31.401 17.937-.558.904 28.666 64.369 30.514 66.264.452.464 6.211-2.346 12.798-6.244 23.858-14.117 46.317-23.539 66.237-27.787 11.959-2.55 45.34-2.546 55.472.006 21.029 5.297 34.14 17.312 39.08 35.813 1.702 6.376 3.172 30.869 1.852 30.868-.497 0-3.219-.88-6.048-1.955-7.745-2.944-23.466-6.711-36.356-8.711-17.178-2.666-53.219-2.404-69.257.504-32.671 5.923-56.07 16.551-78.022 35.439-13.434 11.559-26.204 31.884-30.926 49.224-2.923 10.736-3.213 40.108-.502 50.863 15.504 61.492 81.92 95.973 152.424 79.132 28.719-6.86 49.961-18.97 71.87-40.971l13.087-13.143 1.27 7.56c4.476 26.636 19.861 42.904 45.11 47.699 14.201 2.696 50.296.875 63.083-3.183 1.78-.565 1.863-2.534 1.863-44.056 0-33.896-.275-43.55-1.25-43.854-.687-.215-2.887-.662-4.888-.993-5.505-.912-10.076-4.486-12.862-10.055l-2.5-4.999-.574-61c-.611-64.962-.787-67.467-6.078-86.5-10.175-36.597-36.417-64.784-74.438-79.954-12.695-5.066-30.404-9.525-45.91-11.562-11.718-1.539-45.029-2.671-55-1.87m797.114.459c-63.089 6.029-107.622 39.693-118.231 89.375-4.701 22.016-1.738 49.053 7.007 63.946 11.73 19.978 29.92 31.576 78.61 50.125 16.677 6.353 23.335 8.6 50.496 17.043 14.979 4.655 26.199 9.55 32.165 14.03 4.362 3.276 6.788 9.97 6.006 16.573-1.186 10.01-7.632 15.751-21.932 19.533-9.097 2.405-31.138 2.153-44.374-.507-24.916-5.009-52.261-16.898-77.267-33.593-7.924-5.29-14.515-9.501-14.647-9.358-1.375 1.489-36.458 65.213-36.24 65.825.494 1.389 12.23 11.209 20.483 17.138 60.935 43.774 162.587 53.667 222.31 21.635 35.067-18.808 54.021-50.671 53.992-90.764-.023-32.121-10.753-52.806-35.946-69.294-15.705-10.279-41.962-20.571-90.508-35.477-32.671-10.031-40.945-13.204-46.332-17.765-7.948-6.731-10.191-19.768-4.942-28.725 5.715-9.752 17.678-14.238 37.736-14.149 19.993.088 35.197 4.143 58 15.47 7.425 3.688 19.024 10.333 25.775 14.767l12.275 8.06 3.342-5.23c25.804-40.387 37.598-59.282 37.549-60.162-.167-3.025-26.359-21.74-40.084-28.641-17.153-8.624-38.074-15.048-59.857-18.378-12.901-1.973-42.061-2.75-55.386-1.477M814.077 210.054c-21.571 5.648-39.012 20.428-47.254 40.044-2.881 6.859-5.771 18.132-5.806 22.652L761 275h146.95l-.568-3.25c-4.575-26.182-18.389-45.696-39.882-56.338-4.95-2.451-12.15-5.113-16-5.917-10.143-2.116-28.238-1.846-37.423.559m1440.949-.552c-8.276 1.871-20.832 7.931-28.578 13.791-13.28 10.047-23.453 28.28-25.923 46.457l-.713 5.25h147.279l-.644-3.75c-3.228-18.795-10.139-32.06-23.08-44.299-7.521-7.114-15.83-12.101-25.877-15.533-6.906-2.358-9.889-2.773-21.99-3.054-9.742-.227-15.969.12-20.474 1.138m780.336 13.429c-27.057 7.285-48.957 31.041-56.396 61.176-2.626 10.64-3.613 29.85-2.049 39.893 6.406 41.125 39.109 69.976 79.583 70.208 18.468.106 31.817-4.449 47.259-16.126 9.52-7.198 16.067-14.272 21.451-23.176l3.79-6.269v-70.405l-3.976-7.866c-10.564-20.899-30.229-38.276-52.218-46.14-9.951-3.56-26.861-4.144-37.444-1.295m-408.587 100.982c-14.566 3.184-28.708 10.912-36.147 19.753-1.462 1.737-3.873 5.786-5.358 8.996-2.199 4.756-2.69 7.228-2.648 13.338.07 10.181 2.933 17.326 10.006 24.965 6.206 6.703 11.144 9.884 20.41 13.146 9.149 3.221 30.678 3.278 42.462.113 24.131-6.483 40.236-17.61 48.812-33.724 1.878-3.529 2.172-6.012 2.504-21.092l.376-17.093-10.846-3.123c-16.099-4.637-27.043-6.287-44.846-6.761-13.167-.35-17.545-.088-24.725 1.482"/><path fill="#fcfcfc" fill-rule="evenodd" d="M1706 96.084v96.084l-5.238-7.834c-13.84-20.7-37.464-37.783-63.762-46.108-14.338-4.54-22.67-5.686-41-5.64-30.348.075-53.576 6.839-76.717 22.341-52.538 35.195-80.607 102.35-73.235 175.217 6.209 61.385 39.136 111.837 89.491 137.124 32.676 16.409 72.459 20.74 108.018 11.759 31.126-7.861 56.326-24.498 73.513-48.534 6.049-8.46 6.627-8.285 6.83 2.075.399 20.254 15.617 38.946 37.522 46.087 11.776 3.839 33.083 4.396 54.326 1.42 8.386-1.175 15.923-2.395 16.75-2.712 1.304-.501 1.502-6.332 1.502-44.34V389.26l-4.439-.5c-10.662-1.202-15.885-7.126-17.544-19.899-.575-4.435-.968-79.193-.986-188.111L1811 0h-105v96.084m184 103.692c0 131.693.353 202.664 1.036 208.25 2.258 18.471 8.608 34.393 18.452 46.27 23.982 28.936 68.642 36.712 127.374 22.177 14.277-3.533 37.337-11.06 39.962-13.043.354-.268-12.984-78.67-13.497-79.341-.173-.225-3.805 1.214-8.071 3.198-13.818 6.428-32.903 8.394-42.512 4.38-5.939-2.482-11.45-8.265-13.76-14.44-1.17-3.127-2.504-10.075-3.009-15.672-.5-5.54-.923-88.981-.941-185.805L1995 0h-105v199.776m-273.5 22.183c-18.91 4.043-40.19 20.169-50.201 38.041-5.037 8.993-9.775 22.747-11.371 33.009-1.515 9.75-.634 32.542 1.566 40.491 2.693 9.733 9.736 23.453 16.202 31.562 20.436 25.63 56.966 35.983 87.711 24.858 17.403-6.297 34.438-20.647 43.931-37.008l2.662-4.588V278.96l-4.438-8.836c-7.867-15.664-20.202-28.672-36.573-38.569-12.249-7.405-20.366-9.833-33.989-10.169-6.325-.155-13.3.102-15.5.573"/></svg>